<?xml version="1.0" encoding="utf-8"?>
<!-- Generator: Adobe Illustrator 15.0.0, SVG Export Plug-In . SVG Version: 6.00 Build 0)  -->
<!DOCTYPE svg PUBLIC "-//W3C//DTD SVG 1.1//EN" "http://www.w3.org/Graphics/SVG/1.1/DTD/svg11.dtd">
<svg version="1.1" id="Layer_1" xmlns="http://www.w3.org/2000/svg" xmlns:xlink="http://www.w3.org/1999/xlink" x="0px" y="0px"
	 width="27.765px" height="618.978px" viewBox="0 0 27.765 618.978" enable-background="new 0 0 27.765 618.978"
	 xml:space="preserve">
<g>
	<path fill="#020202" d="M5.522,29.098h9.272v2.25H3.136V3.498h2.386V29.098z"/>
	<path fill="#020202" d="M25.941,178.03L6.988,170.02l-2.932,7.159H1.466l12.033-28.668L25.941,178.03z M7.908,167.838l13.567,5.761
		l-7.977-19.396L7.908,167.838z"/>
	<path fill="#020202" d="M18.578,300.067l-2.182,0.92c-1.023-2.557-2.455-3.988-5.011-3.988c-2.659,0-4.568,1.466-4.568,4.057
		c0,2.727,2.182,3.647,5.352,5.079c4.363,2.011,7.84,3.852,7.84,8.624c0,5.011-3.818,8.727-9,8.727
		c-5.317,0-9.204-3.818-9.204-9.272h2.386c0,3.955,2.863,6.954,6.852,6.954c3.613,0,6.511-2.488,6.511-6.238
		c0-3.681-2.761-5.079-6.511-6.715c-3.307-1.568-6.647-2.965-6.647-7.192c0-4.125,3.17-6.34,7.056-6.34
		C15.306,294.681,17.453,296.931,18.578,300.067z"/>
	<path fill="#020202" d="M14.59,443.238H5.522v5.795h8.079v2.25H5.522v4.705h8.079v2.283H5.522v8.317h9.067v2.25H3.136v-27.851
		H14.59V443.238z"/>
	<path fill="#020202" d="M10.602,586.818c5.59,0,9.272,3.375,9.272,8.693c0,3.92-2.045,6.852-5.284,8.078l5.795,11.079h-2.693
		l-5.488-10.499c-0.443,0.034-0.92,0.068-1.397,0.068H6.068v10.431H3.682v-12.715h7.363l-7.908-15.136H10.602z M13.499,601.544
		c2.488-0.852,3.954-2.966,3.954-6c0-3.953-2.522-6.477-6.647-6.477H6.954L13.499,601.544z"/>
</g>
</svg>
